<?xml version="1.0" standalone="no"?>
<!DOCTYPE svg PUBLIC "-//W3C//DTD SVG 20010904//EN"
 "http://www.w3.org/TR/2001/REC-SVG-20010904/DTD/svg10.dtd">
<svg version="1.0" xmlns="http://www.w3.org/2000/svg"
 width="544.000000pt" height="458.000000pt" viewBox="0 0 544.000000 458.000000"
 preserveAspectRatio="xMidYMid meet">

<g transform="translate(0.000000,458.000000) scale(0.100000,-0.100000)"
fill="#000000" stroke="none">
<path d="M665 4321 c-176 -4 -321 -8 -322 -9 -2 -1 -3 -857 -3 -1903 l0 -1901
32 -60 c40 -75 91 -126 166 -166 l60 -32 2122 0 2122 0 61 33 c75 39 127 90
167 165 l30 56 0 1908 0 1908 -732 0 c-403 0 -1329 2 -2058 4 -729 2 -1469 0
-1645 -3z m4363 -1728 l-3 -1668 -1765 -2 c-971 -2 -2008 1 -2305 5 l-540 7
-2 1647 c-2 906 0 1654 3 1663 6 13 242 15 2310 15 l2304 0 -2 -1667z m2
-1815 c0 -35 -4 -69 -8 -76 -7 -10 -475 -12 -2308 -10 l-2299 3 -3 49 c-2 27
-1 60 3 73 l5 23 2305 0 2305 0 0 -62z m-7 -205 c-3 -83 -71 -177 -164 -228
l-54 -30 -2085 0 -2085 0 -54 30 c-57 32 -119 95 -144 148 -14 29 -22 80 -18
115 1 10 465 12 2304 10 l2302 -3 -2 -42z"/>
<path d="M3745 3894 c-6 -2 -30 -8 -53 -14 -83 -21 -182 -145 -182 -227 0 -93
87 -220 166 -242 94 -26 199 -3 256 56 56 59 72 98 72 178 0 101 -42 173 -127
216 -37 19 -113 38 -132 33z m98 -101 c37 -18 83 -84 92 -129 14 -80 -73 -183
-162 -191 -113 -9 -207 108 -174 218 31 103 147 152 244 102z"/>
<path d="M849 3862 c-102 -53 -156 -177 -125 -286 19 -66 52 -107 115 -144 40
-23 57 -27 127 -27 71 0 85 3 122 27 58 39 89 76 107 127 23 68 19 129 -12
192 -64 125 -212 175 -334 111z m176 -61 c98 -45 132 -146 82 -241 -26 -50
-90 -90 -141 -90 -47 1 -110 34 -141 74 -24 31 -28 46 -28 97 1 76 35 132 96
160 53 23 81 23 132 0z"/>
<path d="M1563 3869 c-23 -11 -62 -42 -86 -68 -39 -41 -46 -56 -52 -104 -11
-87 2 -150 41 -201 56 -73 94 -91 194 -90 99 0 131 13 184 76 93 108 82 260
-26 352 -69 60 -176 74 -255 35z m194 -80 c45 -28 87 -115 78 -162 -15 -79
-84 -146 -160 -154 -53 -6 -115 25 -155 79 -35 46 -35 129 0 180 56 82 156
106 237 57z"/>
<path d="M2274 3876 c-89 -40 -157 -142 -156 -234 1 -72 41 -154 95 -193 121
-87 294 -53 363 74 23 43 28 64 28 122 0 102 -43 173 -129 217 -51 27 -158 34
-201 14z m139 -70 c103 -37 148 -157 93 -250 -28 -48 -89 -86 -137 -86 -49 0
-117 37 -145 80 -52 78 -41 155 32 219 59 52 93 59 157 37z"/>
<path d="M2965 3871 c-47 -21 -99 -70 -122 -114 -20 -40 -28 -141 -14 -192 14
-51 62 -110 112 -135 50 -26 142 -35 197 -20 90 24 174 138 174 236 0 93 -88
211 -174 232 -66 17 -127 14 -173 -7z m150 -64 c144 -56 158 -248 22 -316 -85
-42 -177 -9 -225 79 -30 56 -26 108 12 169 43 67 121 95 191 68z"/>
<path d="M4371 3873 c-135 -48 -194 -232 -115 -359 58 -95 170 -134 286 -100
103 30 176 141 165 250 -17 169 -174 266 -336 209z"/>
<path d="M876 3160 c-101 -39 -155 -120 -156 -229 0 -116 66 -205 176 -237
241 -70 417 233 239 411 -71 71 -165 91 -259 55z m157 -74 c102 -42 128 -196
48 -277 -102 -102 -283 -25 -283 120 0 125 120 206 235 157z"/>
<path d="M1581 3163 c-59 -21 -136 -97 -150 -148 -26 -95 -7 -186 55 -254 79
-88 197 -103 306 -38 126 76 154 233 63 358 -58 81 -180 117 -274 82z"/>
<path d="M2300 3171 c-72 -22 -139 -81 -166 -147 -20 -48 -17 -151 5 -199 40
-90 160 -155 254 -140 128 22 228 145 214 264 -18 155 -169 264 -307 222z
m166 -106 c71 -55 86 -147 35 -226 -41 -66 -87 -85 -165 -71 -99 19 -157 97
-141 192 8 48 66 116 108 130 51 15 125 4 163 -25z"/>
<path d="M2989 3166 c-108 -38 -169 -123 -169 -233 0 -114 70 -208 179 -239
125 -37 259 37 297 164 18 58 18 86 -2 151 -36 124 -185 200 -305 157z m176
-100 c47 -36 65 -74 65 -141 0 -51 -3 -59 -41 -100 -22 -24 -56 -49 -76 -56
-42 -14 -108 -5 -149 20 -37 23 -74 94 -74 142 1 73 57 149 120 162 55 12 119
0 155 -27z"/>
<path d="M3688 3168 c-49 -13 -126 -82 -149 -133 -27 -58 -25 -155 3 -212 80
-160 282 -186 402 -52 116 129 65 327 -101 389 -58 22 -97 24 -155 8z m165
-95 c79 -46 104 -159 52 -236 -94 -137 -315 -68 -315 98 0 56 41 117 105 154
28 16 118 7 158 -16z"/>
<path d="M4386 3164 c-33 -11 -65 -32 -102 -68 -43 -44 -54 -61 -59 -100 -19
-124 15 -211 103 -267 117 -74 224 -59 319 44 49 53 67 110 60 183 -6 61 -23
97 -68 142 -69 70 -163 95 -253 66z m196 -122 c45 -47 48 -54 48 -103 0 -138
-137 -217 -258 -149 -92 52 -108 182 -31 259 37 38 79 51 143 47 45 -3 54 -8
98 -54z"/>
<path d="M852 2439 c-119 -59 -168 -213 -106 -337 89 -178 345 -171 441 12 26
50 28 136 6 187 -27 61 -79 118 -128 140 -57 26 -158 25 -213 -2z m184 -68
c57 -26 87 -72 92 -141 5 -64 -9 -98 -57 -144 -26 -25 -42 -30 -91 -34 -73 -5
-111 9 -146 55 -71 93 -43 213 61 267 40 21 91 20 141 -3z"/>
<path d="M1556 2440 c-81 -41 -125 -106 -133 -199 -8 -87 10 -138 72 -198 81
-79 176 -95 273 -47 114 57 166 175 130 298 -16 55 -99 138 -154 154 -61 18
-143 14 -188 -8z m173 -64 c41 -22 88 -80 102 -126 15 -51 -6 -111 -57 -161
-33 -32 -39 -34 -107 -34 -61 0 -77 4 -105 24 -38 29 -72 94 -72 139 0 117
140 209 239 158z"/>
<path d="M2253 2440 c-83 -42 -137 -133 -137 -225 1 -92 51 -171 139 -218 60
-32 165 -30 225 3 166 93 169 351 4 430 -69 34 -175 38 -231 10z"/>
<path d="M2955 2441 c-86 -40 -135 -120 -135 -221 0 -33 7 -77 16 -98 48 -116
201 -183 312 -137 85 36 162 147 162 235 0 87 -70 190 -152 224 -52 22 -153
20 -203 -3z"/>
<path d="M3660 2444 c-114 -49 -173 -201 -125 -322 21 -52 99 -124 153 -140
112 -34 229 13 289 116 23 39 27 57 27 117 -1 106 -56 192 -146 229 -47 20
-152 20 -198 0z m196 -88 c58 -38 78 -79 72 -149 -8 -96 -72 -157 -163 -157
-61 0 -107 23 -138 68 -36 52 -43 103 -23 156 41 108 157 146 252 82z"/>
<path d="M4355 2438 c-58 -30 -85 -57 -111 -113 -51 -108 -18 -246 74 -308
160 -107 366 -11 389 183 11 94 -54 202 -145 241 -60 26 -154 25 -207 -3z
m190 -71 c145 -82 88 -317 -77 -317 -74 0 -125 33 -162 107 -21 42 -20 85 3
131 48 93 150 128 236 79z"/>
<path d="M3715 1745 c-146 -44 -223 -161 -194 -297 23 -107 127 -188 243 -188
142 1 239 98 239 240 0 36 -7 81 -15 101 -46 108 -172 175 -273 144z m147
-100 c62 -46 87 -149 53 -214 -36 -71 -121 -111 -193 -92 -145 39 -176 233
-50 312 44 27 150 24 190 -6z"/>
<path d="M4407 1746 c-73 -20 -128 -63 -160 -126 -25 -48 -28 -64 -25 -126 4
-85 39 -151 106 -198 39 -28 49 -30 130 -30 97 0 126 10 178 66 98 104 96 247
-5 348 -33 33 -60 50 -96 59 -77 20 -77 20 -128 7z m133 -91 c108 -56 121
-225 21 -290 -77 -51 -170 -38 -230 30 -66 76 -46 202 41 255 40 24 126 27
168 5z"/>
<path d="M840 1718 c-36 -22 -64 -49 -85 -82 -27 -44 -30 -58 -30 -131 0 -73
3 -87 30 -131 109 -176 381 -140 440 60 19 63 19 91 0 147 -35 102 -114 159
-230 166 -65 4 -74 2 -125 -29z m217 -74 c95 -72 99 -193 10 -271 -80 -70
-205 -44 -254 51 -20 39 -19 125 1 165 42 80 171 110 243 55z"/>
<path d="M1551 1724 c-91 -46 -138 -135 -128 -245 12 -134 106 -219 242 -219
98 0 172 45 215 129 108 212 -117 440 -329 335z m207 -81 c67 -50 93 -144 57
-212 -32 -63 -117 -108 -179 -97 -38 7 -110 66 -131 107 -35 67 -3 160 71 206
32 20 49 23 97 20 37 -2 67 -10 85 -24z"/>
<path d="M2265 1737 c-39 -19 -110 -91 -130 -134 -23 -48 -22 -139 2 -193 92
-203 361 -200 454 5 47 103 -1 239 -107 301 -56 33 -170 43 -219 21z m194 -95
c46 -34 71 -81 71 -134 0 -148 -166 -227 -279 -132 -38 32 -66 102 -58 150 7
42 46 102 79 123 52 33 138 30 187 -7z"/>
<path d="M2970 1734 c-45 -19 -106 -79 -131 -126 -36 -70 -20 -191 36 -264 58
-76 201 -107 292 -63 55 27 120 100 134 153 14 52 5 136 -21 185 -53 105 -204
161 -310 115z"/>
</g>
</svg>
