<?xml version="1.0" encoding="UTF-8" standalone="no"?>
<!-- Uploaded to: SVG Repo, www.svgrepo.com, Generator: SVG Repo Mixer Tools -->

<svg
   version="1.1"
   id="Layer_1"
   viewBox="0 0 511.982 511.982"
   xml:space="preserve"
   sodipodi:docname="nim.svg"
   inkscape:version="1.4.3 (0d15f75042, 2025-12-25)"
   xmlns:inkscape="http://www.inkscape.org/namespaces/inkscape"
   xmlns:sodipodi="http://sodipodi.sourceforge.net/DTD/sodipodi-0.dtd"
   xmlns="http://www.w3.org/2000/svg"
   xmlns:svg="http://www.w3.org/2000/svg"><defs
   id="defs24">
	
	
	
	
</defs><sodipodi:namedview
   id="namedview24"
   pagecolor="#ffffff"
   bordercolor="#000000"
   borderopacity="0.25"
   inkscape:showpageshadow="2"
   inkscape:pageopacity="0.0"
   inkscape:pagecheckerboard="0"
   inkscape:deskcolor="#d1d1d1"
   inkscape:zoom="0.95315852"
   inkscape:cx="245.49956"
   inkscape:cy="255.991"
   inkscape:window-width="1366"
   inkscape:window-height="699"
   inkscape:window-x="0"
   inkscape:window-y="0"
   inkscape:window-maximized="1"
   inkscape:current-layer="Layer_1" />
















<path
   style="fill:#434a54;stroke-width:1.98591"
   d="m 480.31784,409.05653 c 0,35.11075 -28.48376,63.56073 -63.54483,63.56073 -35.12663,0 -63.54687,-28.45002 -63.54687,-63.56073 0,-35.09284 28.42223,-63.54883 63.54687,-63.54883 35.06107,10e-4 63.54483,28.45599 63.54483,63.54883 z"
   id="path21" /><path
   style="fill:#434a54;stroke-width:1.98591"
   d="m 152.58902,411.95156 c 0,35.11073 -28.48377,63.56075 -63.544866,63.56075 -35.126624,0 -63.546847,-28.45002 -63.546847,-63.56075 0,-35.09286 28.422211,-63.54883 63.546847,-63.54883 35.061096,10e-4 63.544866,28.45597 63.544866,63.54883 z"
   id="path21-6" /><path
   style="fill:#434a54;stroke-width:1.98591"
   d="m 319.23906,252.15841 c 0,35.11072 -28.48378,63.56075 -63.54487,63.56075 -35.12661,0 -63.54685,-28.45003 -63.54685,-63.56075 0,-35.09285 28.42221,-63.54885 63.54685,-63.54885 35.06109,0.001 63.54487,28.456 63.54487,63.54885 z"
   id="path21-5" /><path
   style="fill:#434a54;stroke-width:1.98591"
   d="m 480.31886,252.15841 c 0,35.11075 -28.42223,63.56072 -63.54685,63.56072 -35.09486,0 -63.54687,-28.45001 -63.54687,-63.56072 0,-35.09285 28.45201,-63.54882 63.54687,-63.54882 35.12462,0.001 63.54685,28.45597 63.54685,63.54882 z"
   id="path22" /><path
   style="fill:#434a54;stroke-width:1.98591"
   d="m 316.45343,409.06247 c 0,35.12662 -28.45398,63.54486 -63.54682,63.54486 -35.09287,0 -63.54685,-28.42023 -63.54685,-63.54486 0,-35.09484 28.45398,-63.54486 63.54685,-63.54486 35.09284,0 63.54682,28.45003 63.54682,63.54486 z"
   id="path23" /><path
   style="fill:#434a54;stroke-width:1.98591"
   d="m 480.31784,95.266252 c 0,35.126618 -28.42221,63.544868 -63.54685,63.544868 -35.12464,0 -63.54486,-28.42023 -63.54486,-63.544868 0,-35.094838 28.42221,-63.544861 63.54486,-63.544861 35.12663,0 63.54685,28.450036 63.54685,63.544861 z"
   id="path24" />

</svg>
